<svg width="30" height="24" viewBox="0 0 30 24" fill="none" xmlns="http://www.w3.org/2000/svg">
<path d="M27.4008 4.4414H22.5817L19.6973 1.52851C19.6973 1.52851 19.683 1.51424 19.6759 1.51424L19.6616 1.49996C19.2333 1.07159 18.655 0.800293 17.9981 0.800293H12.001C11.3014 0.800293 10.6802 1.10015 10.2447 1.57849V1.58563L7.42466 4.4414H2.49846C1.17052 4.4414 0.0996094 5.48375 0.0996094 6.81169V21.2405C0.0996094 22.5684 1.17052 23.6464 2.49846 23.6464H27.4008C28.7216 23.6464 29.7996 22.5684 29.7996 21.2405V6.81169C29.7996 5.48375 28.7216 4.4414 27.4008 4.4414ZM14.9496 20.041C11.3156 20.041 8.35278 17.071 8.35278 13.4299C8.35278 9.78169 11.3156 6.81883 14.9496 6.81883C18.5907 6.81883 21.5464 9.78169 21.5464 13.4299C21.5464 17.071 18.5907 20.041 14.9496 20.041ZM26.951 8.26099C26.4012 8.26099 25.9515 7.8112 25.9515 7.25433C25.9515 6.69745 26.4012 6.24767 26.951 6.24767C27.5007 6.24767 27.9505 6.69745 27.9505 7.25433C27.9505 7.8112 27.5007 8.26099 26.951 8.26099Z" fill="white"/>
</svg>
