<svg width="21" height="19" viewBox="0 0 21 19" fill="none" xmlns="http://www.w3.org/2000/svg">
<path d="M19.7954 7.99244H16.633V5.18085C16.633 4.96633 16.4372 4.79187 16.1964 4.79187H15.2959C15.0534 4.79187 14.8577 4.96633 14.8577 5.18085V7.99244H11.6952C11.4544 7.99244 11.2578 8.16727 11.2578 8.38217V9.18296C11.2578 9.39786 11.4544 9.57194 11.6952 9.57194H14.8577V12.385C14.8577 12.5999 15.0534 12.774 15.2959 12.774H16.1964C16.4372 12.774 16.633 12.5999 16.633 12.385V9.57157H19.7954C20.0362 9.57157 20.2328 9.39748 20.2328 9.18259V8.38179C20.2328 8.1669 20.0362 7.99244 19.7954 7.99244Z" fill="black"/>
<path fill-rule="evenodd" clip-rule="evenodd" d="M8.99505 10.7362C8.41056 10.2871 7.87935 9.62858 7.8701 9.42632C7.8701 9.05791 7.90043 8.88173 8.66211 8.23802C9.64686 7.40167 10.1892 6.30206 10.1892 5.14024C10.1892 4.08678 9.89249 3.1509 9.38754 2.49354H9.77929C9.8603 2.49354 9.93984 2.46625 10.0046 2.41488L11.0977 1.55566C11.2335 1.45011 11.2904 1.2619 11.2386 1.08973C11.1865 0.917966 11.04 0.800781 10.8732 0.800781H5.98421C5.4493 0.800781 4.90588 0.903117 4.37244 1.10217C2.59088 1.76876 1.34497 3.41577 1.34497 5.10653C1.34497 7.502 3.05551 9.31756 5.34202 9.37455C5.29726 9.56437 5.27469 9.75139 5.27469 9.93479C5.27469 10.304 5.36089 10.6536 5.53845 10.9915H5.47556C3.29596 10.9915 1.32869 12.1517 0.581808 13.8781C0.387226 14.3272 0.288086 14.7811 0.288086 15.2294C0.288086 15.6652 0.391295 16.0846 0.593645 16.4787C1.06308 17.3897 2.07113 18.0964 3.43357 18.4696C4.1368 18.6623 4.89256 18.7606 5.67717 18.7606C6.38225 18.7606 7.05441 18.6619 7.67589 18.4668C9.61356 17.8564 10.8665 16.3089 10.8665 14.5227C10.8661 12.8086 10.3582 11.7825 8.99505 10.7362ZM2.8206 14.6599C2.8206 13.413 4.2807 12.3194 5.945 12.3194H5.98976C6.35192 12.3242 6.7052 12.382 7.03813 12.4928C7.14461 12.5724 7.24756 12.6486 7.34668 12.7219L7.36848 12.738L7.37082 12.7397C8.14044 13.3086 8.64894 13.6845 8.79048 14.2875C8.82377 14.4396 8.84042 14.5917 8.84042 14.739C8.84042 16.2917 7.77318 17.0787 5.66719 17.0787C4.07095 17.0787 2.8206 16.0168 2.8206 14.6599ZM5.31835 2.38599C4.93584 2.38599 4.59514 2.55615 4.33508 2.87841C3.9326 3.37644 3.76244 4.16503 3.8686 5.04232C4.05764 6.61147 5.11378 7.96753 6.17214 8.00284H6.18952H6.19026C6.5883 8.00284 6.9242 7.83268 7.185 7.50962C7.59265 7.00557 7.77318 6.17845 7.66627 5.29876C7.47613 3.7276 6.44218 2.42131 5.36163 2.38679L5.31835 2.38599Z" fill="black"/>
</svg>
