<svg width="19" height="19" viewBox="0 0 22 19" fill="none" xmlns="http://www.w3.org/2000/svg">
<path d="M21.3798 2.92676C20.61 3.2879 19.7814 3.53149 18.9121 3.64051C19.7997 3.07974 20.4803 2.19148 20.8013 1.13186C19.971 1.6518 19.052 2.02909 18.0729 2.23276C17.2895 1.35168 16.1727 0.800781 14.937 0.800781C12.5645 0.800781 10.6409 2.83076 10.6409 5.33492C10.6409 5.68977 10.6787 6.03566 10.7523 6.36808C7.18139 6.17876 4.01523 4.37399 1.89609 1.63072C1.52625 2.30005 1.31455 3.07884 1.31455 3.91057C1.31455 5.48341 2.07293 6.87142 3.22581 7.68431C2.52184 7.66054 1.85911 7.45642 1.27969 7.11682C1.27927 7.13566 1.27927 7.15495 1.27927 7.17424C1.27927 9.37065 2.76032 11.2028 4.726 11.62C4.36551 11.7232 3.9859 11.7788 3.59395 11.7788C3.31678 11.7788 3.04769 11.7505 2.78541 11.6972C3.33251 13.4983 4.919 14.8096 6.7988 14.846C5.32837 16.0622 3.4762 16.7871 1.46291 16.7871C1.11645 16.7871 0.774245 16.7656 0.437988 16.7234C2.3399 18.0105 4.59804 18.7606 7.0241 18.7606C14.9272 18.7606 19.2484 11.8519 19.2484 5.86025C19.2484 5.66376 19.2445 5.46771 19.2365 5.27301C20.0756 4.63508 20.8042 3.8361 21.3798 2.92676Z" fill="black"/>
</svg>
